<svg xmlns="http://www.w3.org/2000/svg" viewBox="0 0 48 48" width="48" height="48">
  <g fill="#fff">
    <path d="M24 16a8 8 0 1 0 0 16 8 8 0 0 0 0-16z" fill="#4CAF50"/>
    <path d="M44 26v-4l-4.2-1c-.3-1-.8-2-1.4-2.9l2-3.6-2.8-2.8-3.6 2c-.9-.6-1.9-1.1-2.9-1.4L26 8h-4l-1 4.2c-1 .3-2 0.8-2.9 1.4l-3.6-2  -2.8 2.8 2 3.6c-.6.9-1.1 1.9-1.4 2.9L8 22v4l4.2 1c.3 1 .8 2 1.4 2.9l-2 3.6 2.8 2.8 3.6-2c.9.6 1.9 1.1 2.9 1.4L22 40h4l1-4.2c1-.3 2-0.8 2.9-1.4l3.6 2 2.8-2.8-2-3.6c.6-.9 1.1-1.9 1.4-2.9L44 26z" opacity="0.95"/>
  </g>
</svg>